{"title":"Dave.Chappelles.Block.Party.2005.1080p.WEB-DL.DD5.1.H.264-RARBG","uid":11892947,"size":4168891163,"categoryP":"video","categoryS":"hd___tv_shows","magnet":"?xt=urn:btih:0ea2f3dc853b8d2509171862d3e62611f04f9059&amp;dn=Dave.Chappelles.Block.Party.2005.1080p.WEB-DL.DD5.1.H.264-RARBG&amp;tr=udp%3A%2F%2Ftracker.openbittorrent.com%3A80&amp;tr=udp%3A%2F%2Fopen.demonii.com%3A1337&amp;tr=udp%3A%2F%2Ftracker.coppersurfer.tk%3A6969&amp;tr=udp%3A%2F%2Fexodus.desync.com%3A6969","seeders":8,"leechers":4,"uploader":"frostyon420","files":3,"time":1431045209,"description":" &lt;a href=&quot;https://rarbg.to&quot; rel=&quot;nofollow&quot; target=&quot;_NEW&quot;&gt;https://rarbg.to&lt;/a&gt;\n\nDave.Chappelles.Block.Party.2005.1080p.WEB-DL.DD5.1.H.264-RARBG\n\nVideo\nID                          : 1\nFormat                      : AVC\nFormat/Info                 : Advanced Video Codec\nFormat profile              : &lt;a class=&quot;__cf_email__&quot; href=&quot;/cdn-cgi/l/email-protection&quot; data-cfemail=&quot;1951707e7159552d3729&quot;&gt;[email&amp;#160;protected]&lt;/a&gt;&lt;script cf-hash='f9e31' type=&quot;text/javascript&quot;&gt;\n/* &lt;![CDATA[ */!function(){try{var t=&quot;currentScript&quot;in document?document.currentScript:function(){for(var t=document.getElementsByTagName(&quot;script&quot;),e=t.length;e--;)if(t[e].getAttribute(&quot;cf-hash&quot;))return t[e]}();if(t&amp;&amp;t.previousSibling){var e,r,n,i,c=t.previousSibling,a=c.getAttribute(&quot;data-cfemail&quot;);if(a){for(e=&quot;&quot;,r=parseInt(a.substr(0,2),16),n=2;a.length-n;n+=2)i=parseInt(a.substr(n,2),16)^r,e+=String.fromCharCode(i);e=document.createTextNode(e),c.parentNode.replaceChild(e,c)}}}catch(u){}}();/* ]]&gt; */&lt;/script&gt;\nFormat settings, CABAC      : Yes\nFormat settings, ReFrames   : 4 frames\nCodec ID                    : V_MPEG4/ISO/AVC\nDuration                    : 1h 42mn\nBit rate                    : 4 909 Kbps\nWidth                       : 1 920 pixels\nHeight                      : 1 036 pixels\nDisplay aspect ratio        : 1.85:1\nFrame rate mode             : Constant\nFrame rate                  : 23.976 fps\nColor space                 : YUV\nChroma subsampling          : 4:2:0\nBit depth                   : 8 bits\nScan type                   : Progressive\nBits/(Pixel*Frame)          : 0.103\nStream size                 : 3.53 GiB (91%)\nTitle                       : Dave.Chappelles.Block.Party.2005.1080p.WEB-DL.DD5.1.H.264-RARBG\nLanguage                    : English\nDefault                     : Yes\nForced                      : No\nColor primaries             : BT.709\nTransfer characteristics    : BT.709\nMatrix coefficients         : BT.709\nColor range                 : Limited\n\nAudio\nID                          : 2\nFormat                      : AC-3\nFormat/Info                 : Audio Coding 3\nMode extension              : CM (complete main)\nFormat settings, Endianness : Big\nCodec ID                    : A_AC3\nDuration                    : 1h 42mn\nBit rate mode               : Constant\nBit rate                    : 384 Kbps\nChannel(s)                  : 6 channels\nChannel positions           : Front: L C R, Side: L R, LFE\nSampling rate               : 48.0 KHz\nBit depth                   : 16 bits\nCompression mode            : Lossy\nStream size                 : 283 MiB (7%)\nTitle                       : Dave.Chappelles.Block.Party.2005.1080p.WEB-DL.DD5.1.H.264-RARBG\nLanguage                    : English\nDefault                     : Yes\nForced                      : No\n\nText\nID                          : 3\nFormat                      : UTF-8\nCodec ID                    : S_TEXT/UTF8\nCodec ID/Info               : UTF-8 Plain Text\nTitle                       : English\nDefault                     : Yes\nForced                      : No","torrent":{"xt":"urn:btih:0ea2f3dc853b8d2509171862d3e62611f04f9059","amp;dn":"Dave.Chappelles.Block.Party.2005.1080p.WEB-DL.DD5.1.H.264-RARBG","amp;tr":["udp%3A%2F%2Ftracker.openbittorrent.com%3A80","udp%3A%2F%2Fopen.demonii.com%3A1337","udp%3A%2F%2Ftracker.coppersurfer.tk%3A6969","udp%3A%2F%2Fexodus.desync.com%3A6969"],"infoHash":"0ea2f3dc853b8d2509171862d3e62611f04f9059","infoHashBuffer":{"type":"Buffer","data":[14,162,243,220,133,59,141,37,9,23,24,98,211,230,38,17,240,79,144,89]},"announce":[],"urlList":[]}}